<mxfile host="app.diagrams.net" modified="2023-03-10T01:41:38.816Z" agent="5.0 (Windows)" etag="R7fhb9W-x_iH5kk_cHZz" version="21.0.4" type="github">
  <diagram name="PÃ¡gina-1" id="r2u9NscXRkW3oWa96-SB">
    <mxGraphModel dx="818" dy="469" grid="1" gridSize="10" guides="1" tooltips="1" connect="1" arrows="1" fold="1" page="1" pageScale="1" pageWidth="827" pageHeight="1169" math="0" shadow="0">
      <root>
        <mxCell id="0" />
        <mxCell id="1" parent="0" />
        <mxCell id="yo1ZVaZXSaafp4eWGXGd-2" value="" style="swimlane;startSize=0;" parent="1" vertex="1">
          <mxGeometry x="90" y="40" width="130" height="310" as="geometry" />
        </mxCell>
        <mxCell id="yo1ZVaZXSaafp4eWGXGd-10" value="" style="shape=cylinder3;whiteSpace=wrap;html=1;boundedLbl=1;backgroundOutline=1;size=15;fillColor=#ffe6cc;strokeColor=#d79b00;" parent="yo1ZVaZXSaafp4eWGXGd-2" vertex="1">
          <mxGeometry x="50" y="30" width="30" height="50" as="geometry" />
        </mxCell>
        <mxCell id="yo1ZVaZXSaafp4eWGXGd-11" value="&lt;div&gt;&lt;font style=&quot;font-size: 11px;&quot;&gt;&lt;font style=&quot;font-size: 10px;&quot;&gt;&lt;font style=&quot;font-size: 9px;&quot;&gt;&lt;font style=&quot;font-size: 8px;&quot;&gt;&lt;br&gt;&lt;/font&gt;&lt;/font&gt;&lt;/font&gt;&lt;/font&gt;&lt;/div&gt;&lt;div&gt;&lt;font style=&quot;font-size: 11px;&quot;&gt;&lt;font style=&quot;font-size: 10px;&quot;&gt;&lt;font style=&quot;font-size: 9px;&quot;&gt;&lt;font style=&quot;font-size: 8px;&quot;&gt;&lt;br&gt;&lt;/font&gt;&lt;/font&gt;&lt;/font&gt;&lt;/font&gt;&lt;/div&gt;&lt;div&gt;&lt;font style=&quot;font-size: 11px;&quot;&gt;&lt;font style=&quot;font-size: 10px;&quot;&gt;&lt;font style=&quot;font-size: 9px;&quot;&gt;&lt;font style=&quot;font-size: 8px;&quot;&gt;XLS/ CSV&lt;/font&gt;&lt;/font&gt;&lt;/font&gt;&lt;/font&gt;&lt;/div&gt;" style="shape=note;whiteSpace=wrap;html=1;backgroundOutline=1;darkOpacity=0.05;fillColor=#d5e8d4;strokeColor=#82b366;" parent="yo1ZVaZXSaafp4eWGXGd-2" vertex="1">
          <mxGeometry x="41.25" y="180" width="47.5" height="60" as="geometry" />
        </mxCell>
        <mxCell id="yo1ZVaZXSaafp4eWGXGd-12" value="&lt;font style=&quot;font-size: 9px;&quot;&gt;&lt;font style=&quot;font-size: 8px;&quot;&gt;Sistema Transacional Legado&lt;br&gt;&lt;/font&gt;&lt;/font&gt;" style="rounded=0;whiteSpace=wrap;html=1;fontSize=10;fontStyle=1;strokeWidth=0;" parent="yo1ZVaZXSaafp4eWGXGd-2" vertex="1">
          <mxGeometry x="5" y="110" width="115" height="20" as="geometry" />
        </mxCell>
        <mxCell id="yo1ZVaZXSaafp4eWGXGd-13" value="Arquivos Legados" style="rounded=0;whiteSpace=wrap;html=1;fontSize=10;fontStyle=1;strokeWidth=0;" parent="yo1ZVaZXSaafp4eWGXGd-2" vertex="1">
          <mxGeometry x="7.5" y="260" width="115" height="20" as="geometry" />
        </mxCell>
        <mxCell id="yo1ZVaZXSaafp4eWGXGd-9" value="Fontes de dados" style="rounded=0;whiteSpace=wrap;html=1;fillColor=#dae8fc;strokeColor=#6c8ebf;fontSize=10;fontStyle=1" parent="1" vertex="1">
          <mxGeometry x="100" y="10" width="115" height="20" as="geometry" />
        </mxCell>
        <mxCell id="OpeispYm6YmDS1nkDUbH-6" value="" style="shape=image;verticalLabelPosition=bottom;labelBackgroundColor=default;verticalAlign=top;aspect=fixed;imageAspect=0;image=data:image/png,iVBORw0KGgoAAAANSUhEUgAABJ4AAAGXCAYAAADyJJqFAAAAAXNSR0IArs4c6QAAAARnQU1BAACxjwv8YQUAAAAJcEhZcwAAEnQAABJ0Ad5mH3gAAHOhSURBVHhe7d0HnBx3ff9/S3K3wQXTbXoLLaYnlIQWaoA/kEBCIAQIgeQHBut0d1ZvlmxZcpV7b8i9497l3mTrdvd61fXe++6+//Pdm4XjmJnbvdvZ+no+Hp+H7Lvd/c7OfHe037e+8539BAAAAAAAAPiA4AkAAAAAAAC+IHgCAAAAAACALwieAAAAAAAA4AuCJwAAAAAAAPiC4AkAAAAAAAC+IHgCAAAAAACALwieAAAAAAAA4AuCJwAAAAAAAPiC4AkAAAAAAAC+IHgCAAAAAACALwieAAAAAAAA4AuCJwAAAAAAAPiC4AkAAAAAAAC+IHgCAAAAAACALwieAAAAAAAA4AuCJwAAAAAAAPiC4AkAAAAAAAC+IHgCAAAAAACALwieAAAAAAAA4AuCJwAAAAAAAPiC4AkAAAAAAAC+IHgCAAAAAACALwieAAAAAAAA4AuCJwAAAAAAAPiC4AkAAAAAAAC+IHgCAAAAAACALwieAAAAAAAA4AuCJwAAAAAAAPiC4AkAAAAAAAC+IHgCAAAAAACALwieAAAAAAAA4AuCJwAAAAAAAPiC4AkAAAAAAAC+IHgCAAAAAACALwieAAAAAAAA4AuCJwAAAAAAAPiC4AkAAAAAAAC+IHgCAAAAAACALwieAAAAAAAA4AuCJwAAAAAAAPiC4AkAAAAAAAC+IHgCAAAAAACALwieAAAAAAAA4AuCJwAAAAAAAPiC4AkAAAAAAAC+IHgCAAAAAACALwieAAAAAAAA4AuCJwAAAAAAAPiC4AkAAAAAAAC+IHgCAAAAAACALwieAAAAAAAA4AuCJwAAAAAAAPiC4AkAAAAAAAC+IHgCAAAAAACALwieAAAAAAAA4AuCJwAAAAAAAPiC4AkAAAAAAAC+IHgCAAAAAOS18FREIyNT6u2bUGvXuCr3jeqR6mHdVTGkPzrU3VY9Xz+s2pZRNXeOqbd/UsPDU9brhKVo1H5VAIkgeAIAAAAA5CyTA42MhbWvY1yPBQd1/hPd2nBvu35/Q7O+f0m9PnpWjT54Zo3+Zke13ntald51apXetrVSr99coddscq83n1yht1uPM483zzPP/+AZNTreer0vnlenX1zdqFV3tOq0hzt1w/O9eqV2SB09ExqfDJNNAbMQPAEAAAAAslokKo1ORtQ3Oq26rnE9FOjXqfd36D+vbdKnT6/Wq9eX67C15Tp4dUj7rwxqyUlB7VdqVUlA+xU7lPl5ouX0fFPW70w7S632DlgV0qFrQjp8XbmOsLbl73dU6yfXNmqrtY337+1XqHVMXUPTGhwPaypMKoXCQvAEAAAAAMgu0ah6h6ZU0TGuByoGdfpDHfrhlY36yLZKLZsdCplwaW6Z0CkT5bQts7b12HUhfeG8WhXd1qrrnu/VMw0jquue0ODotPV+7fcN5CGCJwAAAABAxoXDEVW1jemmPX3acE+7vn1Zg961tUL7FZVZFZiZZWTCHKfQJ1eqxKoV1vtYXqbDrP//2x3V+uFVTdryQIfu2DugmvZxaTpi7xEgPxA8AQAAAAAywiz6/XzdsLY/0KHvXtkYC2IOXRXUfieWzQQ0ZrbQ3PAmX8qEaCZMM6Ga9X6PWBPS8WdU61+s/bD53nY9FBrUqJkNBeQ4gicAAAAAQPpEowruG9HqP7bpH8+t1Rs2V2r/k2ZmAeXFrKaFVqn13k3YVlSmpSUBvXZjuY4/vVon3NSs+wIDGp8I2zsQyC0ETwAAAAAAX02Ho9rXM6mLdnfpSztrdejaci01YYu9SHfBhk1eZc+IWmL9aRYvf+vJFfrt9fv0WOWQ+kfDipoV14EcQPAEAAAAAPBFe/+U7g8N6te7mvSadaE/z2giaEqu4vvMrBFl7cOPnl4Vuzzx+cZRDXA5HrIcwRMAAAAAIGUi4aiCzaM67aFOff7cWi01YVM8cHIKVajky8wSWx7Qq9eEYmtCXfZUj+o6xu0jAGQXgicAAAAAwKJFo9JTVUP67c0teu+2Ki01i2abNYucghMqNWXCvKIyHVgS0EfOqFbxHa16uWHEHI2ZgwJkAYInAAAAAMDCRaXdVUP67mUNev3GipnZTQRO6S0TQFn7fIm174/dXKEfXtWox61jwjpQyAYETwAAAACApE1NR/Vk9ZD++eI6HbI6NHP5FwuFZ77s42AWJP/ahfXaXTmk8amIfdSA9CN4AgAAAAAkbHIyoufqR/Sf1zTqwJMIm7K2zDGxamlpQN+/rF4PlA9qZCJsH0UgfQieAAAAAADzi0h7Gkf0+1ta9Jq1QS6ny6VaUabDVwb1b1c16qHQoCJmQS4gTQieAAAAAACeugcnte7uNr19S2VsMWtmOOVgmWNmHbs3bSjXr67fp1eaRu2jC/iL4AkAAAAA4MgsTr3ruV59ZEe1DigNzCwc7hRqULlT5tLIojK9bUul1t/Vqt7BKftoA/4geAIAAAAA/KWoVN06ph9c3qgDV4UInPKxYmtzBfTB06p018t9mp5mAXL4g+AJAAAAAPAnw2PTumh3t47dVDETOHFZXX6XdXwPsOrX1zerqn08FjoCqUTwBAAAAACIealhWP9yeYOWEDgVXlnH/L2nVOrSJ7o1MDJt9whg8QieAAAAAKDATU5EdN5jnXrvKRUzi4c7BRNU/ldxQIeUBvTDKxtU1Tpm9w5gcQieAAAAAKCANXVP6CdXN+rAkwL5t5aTmbWViXLallwps/327Kcbnu+1egjX3mFxCJ4AAAAAoEDtrhzSR3dUzwROJXMCiFwqE5aY7TcLZq+YCdCWWj83C6MfvjakozdU6JjNFXrX1kp9+ewa/eTKBp1wS4tK7mrTuvs7de5jXbru6W7dvadPDwf69VDZTJn/vuPFXu16qlvXWrX1wc7Yc/7fTc366VWN+tq5NXq79ZrHbKrQUevLdeiakPZfFdSS+HaYii3iPWtbc6WsfXiQtf9+f2Ozeoe48x0WjuAJAAAAAArMSOzSui4duTaUm4FTLGgywU6Z9juxTAedFNAxG8v1vtOq9Mmdtfru5Y1af3erLniyRw8HBtXUPqaR0WkpmvrZO1HrNQeGplS9b0R3vDygMx/t1G9vaNbnzqvTR86o0ZtPrtShq6ztXW5tq7mMMZdmldmznz53Tq1eaBix3zGQHIInAAAAACggLb0T+r+bmrWkuCy3ZuKYbTUziEzQVBLQe06t1DcvadAvb26JrU91V2BAdR3jikyH7XeaYdGohoYm9XjNsC5/ulu/v61V37m8QR/YXhXbfvM+Yu8nF45BkbW/t1bq+hd6FY5w6R2SQ/AEAAAAAAUisG9UX7+wTktzJfAwZWYILS/TG9eH9PWL63Xy/e26aU+/9jSNanA4t+6+NjYWVlnLqG5+pV8b72nXP51fp9eusd6jmQmV7TPPrONwzNqQVv+xTRMTEfsdAfMjeAIAAACAAvB41ZDet60q+2fZmG2z6w3ry/WLPzTp5hf7VN4+rh4TNPlwuVxGRKLqGppWoGVU5+/u0tfOr9WBK//y/Tvun0yWmalVEtSPrmxUe++k/UYAbwRPAAAAAJDXorpzT5/etLE8O9cXMgGLCTSsbTOLgZvt/I+rG3X/3j71DE1pKpz/l3aZLG18Khq7VPCMhzr092fU6JA1oZlFys0xy6YQymxLUUCfP7dOlW3j9jsA3BE8AQAAAECempyK6MLdXTrMLG6dbTNozPasKNOS4oCO3Vyhb1xcr8uf7FZPPzNppqcjerx8IDbb673bqrS/va+y6hgWBfTxM2r0bO2wvdWAM4InAAAAAMhDYxPh2HpIB5uQINtCp6KADi4J6tM7a7Xu7nY9Z8KLfLmELsVqO8a146EOff78Wh0a23dlzvs0E1Uc0PtPqdS9rwzYWwv8NYInAAAAAMgzI+NhrbmrTYeYcMBcrjU3MMhUWdtyYGlA37+sQdc+36dWs04QeVNCugcmdd2Lffr+5Q06yNqHWXPZpJmxtrFcN7/QZ28p8JcIngAAAAAgj4xNRFR0S4sOMLOcsiF0Mtth1cErg/rxVY16vHpI/SO5dTe6bDIwOq37g4P65oV1sYW+s2I2W3FAr19frj8802NvJfBnBE8AAAAAkCempqNadUfrTOBkZsU4hQTpKnth7FetDem7l9br2bphTRfAQuHpMj4V0f2BAX36nFotOWlmXzseh3RVSVBHrS3XlU/32lsIzCB4AgAAAIA8YNZ0ioVOmZ4BY9ovKouFEN++pF67KwetrSNw8su4ddwvfKxLH9pRPRM+ZXKWWyx8CunqZ3o55PgTgicAAAAAyHETU5HYmk4HmFlOmQyeis2i4QF97aJ63fxin8KRiL2F8FtT17hWWn3g7ZsrMrsAudX/jl4bih1/wCB4AgAAAIAcFg5HteOhTh260hr0Z3K2S3FAHzi1Shfs7lbPyJS9dUinaDSqp2qG9L3LGrQsdrmlw3FKR5UE9eYN5bp3L3e7A8ETAAAAAOSuqHTFUz169apQ5tb4KQ3qYOvPFbe1qL5rwqQf9sYhU4bGwrpwd5eO3VQeC4EyEkBZ/fGdWyq1u3LI3ioUKoInAAAAAMhR9wYGdNSaUGZmOplAw2r3Y6dX66HQgCIsHJ51qlpH9dUL6rTMLD6eiT5iZsFtr9aephF7i1CICJ4AAAAAIAftaRzWmzZVZGw2yxFrQyq6tUVdg1xWl80mJiM6+Z42Hb2+PDOz4ooC+sJ5dWrpmbC3CIWG4AkAAAAAckxd+5g+dUb1zKwjp8G+n7W8TB+32r7ppT4uq8sV1nF6IDigj55u9ZkVmQifyvTTa5o0Mh62NwiFhOAJAAAAAHJIz9CUvntpffpnr5QGtbQkoP++rknV7eP21iCXVFnH7d+vaNDSTMx8svpO6e0tZJUFiOAJAAAAAHJENBzV6jvbtMQEB+m8xK4kGFtL6syHOjUxEbG3Brmob3haG+5u0wGm/6SzD1ltHbgyqEt3d9pbgkJB8AQAAAAAOWLX87061Bq8p3Wh6BUBveuUSt1fxq3x80UkEtXVT/fo6LVpvhtiSVCv21iux7nTXUEheAIAAACAHPBy06jeurkifes6mdkwKwL6ws4aBZtH7a1APrnjlX4da/pUOtd9Kg7o02fXqJnFxgsGwRMAAAAAZLmhkWl9+YK69IZOJQH9xzVN6uybtLcC+eixqiEdv70qvTOfrLb+94ZmjU+w2HghIHgCAAAAgCxnFmVO26yU0qD2t+qEW1s0zF3ICsLLjaP6xI7q9IVPVv86ZGVQlzzZLbHYeN4jeAIAAACALHbrC306bM3MYN1xEJ/KsgOBDX9s09gki4gXklDzqL5wTk36ZtUVB3TcxnIF9nEZZ74jeAIAAACALNXUNaHjT69Oz2yn0qAOXhnUtnvbFY0wDaUQ1XeM6/MmfErXzCernW9fWKfxSWbW5TOCJwAAAADIQuFwRL+9uTk9IUBJQK9eE9RZD3TYraNQlbeM6ZMm7EzjZXdnPtxpt458RPAEAAAAAFnojpf7dcSakP+XPlmvf/iqoM57xBr8M9EJlufrR/Sh09K04HhpUG/cUK7n64bt1pFvCJ4AAAAAIMu0D0zqs2fV+H+Jnbm8zvrz1Ps6NDVN6oQ/e7pmRMedXBHrI459J5VVHNDXL67X8Oi03TryCcETAAAAAGSRaFTael+7/7NNSoNaWhrQSXe0anKKhcTx1+4LDugoM+vO7/DJev0Drb547uNddsvIJwRPAAAAAJBFzF2+jlydhsF+cUA/v24foRM8Xf10jw4uDaSlP35kR7Uq28btlpEvCJ4AAAAAIEtEwlF96+J6/9d1WhHQty+u09AIlzbB2/R0RBvvbostQO97+LS8TCvvaFWYyz7zCsETAAAAAGSJW17o1aGrfJ7tVBzQJ86sVlPXhN0q4G1geEr/fmVDWtYcO2ptSE/VsNB4PiF4AgAAAIAs0D04pc/urPV3baeSoN5xcoWeqWVgj+SYS+COP73a/7XHrNf/54vqNTnFrKd8QfAEAAAAAFngzEc6tb+Z6eTXbCfrdQ9eGdTVz/bYLQLJebRiUEeuK/f9krslVt3xcr/dKnIdwRMAAAAAZFhD17j+7uwa/y5lMkFBcUAn3d6iaJiZJFi4Mx7o8D14Mq//yTOrNcXC93mB4AkAAAAAMuysRzu1X1GZ8yA8FbUioC+eX6eO/km7RWBhJiYj+rZZAN/P9Z5KgzpoVUgX7+6yW0UuI3gCAAAAgAxq6pnQ8durZu4a5jQIX2xZg/g3bSzXM9VDdovA4pS3juldWyq1X7FDf0tVFQf0qbNq1DUwZbeKXEXwBAAAAAAZdM6jXb7OdlpSEtB5jzBzBKl16dPd2t/0Mb8uu7Ne17z+2Y922i0iVxE8AQAAAECG9I1M6z1bK/0bvJcE9f1L6zU5yVo5SK3h0Wn925WN/l4iar32F8+rUxuXiOY0gicAAAAAyJBLn+iKhUOOg+7FlvW6r99QrrLmUbs1ILWeqh7SW0+u8PUy0aXWa+96oc9uEbmI4AkAAAAAMmB8IqyPnV7t32ynFQGd9UinFOUudvDPqrvatNSEpz72429dXKfe4Wm7ReQagicAAAAAyIAbnuvRIatC/gzYi8r0pXNr1dbHJUrwV+/ApD68vdq/WU9WmVlPD5QP2i0i1xA8AQAAAICXaFTh6YimJ8N/qvBUeHEzicJRfd3ckr7Yh8F6SVBHrg3p5pd67cYAf133bI+WlPoXPJnPyY+vaNDkNLP3chHBEwAAAICCFA5H1dU3oVfqhnXznn6ds7tbG+9u04k3Nuu/rmrUly+q16fPt+q8On3q3Fp9cuef61NW/b31c/OY/71un06+r13XP9+nmuZRTU3Nv5D3Y5VDeuNGn9bGsQbpP7iyMRaWAekwafX5r55f69/ldlYdsjqk6tYxu0XkEoInAAAAAHnLTEoysyQGxsKqsgatVz3ToxNva9H3L6nXu0+p1NEby3XE+nIduiakA1aFtNQMck0YZGYirUiwrMcvswfGR22o0HEnV+pfLq3Xhnva9XDZgBq6JjRotT82GbG2JWJtlPS7m1u1X5H13FkD65RUSVCv2VCuRyq4LAnp9WT1sA4+yYc+HS+rb6+8vdVuDbmE4AkAAABAXhkZD6uxe1JP1A7p9Ac69P3LG/SWTeWxgWtsRsZ85TToTaTiz5/bjvX/x60P6Us7a/Q9a1tMvWmTme1k/c7pdRZT1mv+9Jome08A6TMyEdZ/XdsUW1/MsW8utqzP0tu3VKp/eMpuEbmC4AkAAABAzhu0BqNP1g7r/N3d+qk1+H3/KZVatsIaANszkhwHsumseCBltsWU+X+nxy2yjlpXrooWLkdCZtwfGtThq6y+6Ef/tl7zoFUhXWJ9xpFbCJ4AAAAA5KTJyYh2Vw1q9d3t+uYl9TOziE4sm5lx4cdsomyv4oB+c/2+Ra15DizG6HhYP766Ufst92nWk9XHv35RvRShk+cSgicAAAAAOaW1e1xnPNSpL11QrzdurtBSM7PJrJeUDTObMlWlQR29JqRA86i9l4DMuO3l/tjMO38uJQ3E1lB7unbYbg25gOAJAAAAQNabmo7qhbph/fLaRr12Y4UOWBmaWQC8EGc2OVVRQL++oVnjk9zJDpk1ORHWFy+o92fxfFPW537jfR12a8gFBE8AAAAAslb30JTuKuvXNy+s0wFm0GnWjonX3AFpoZa1L8zdxB6qGLL3GpBZFz3epUP8WuupqEzfvKRBg8PTdmvIdgRPAAAAALJOx8CUrnmuR18+r9Zes6mAL6Obr5aX6buXNaiPgTiyRP/QlD5wWpU/n9uSoF6zvlwPVRG05gqCJwAAAABZw9yS/bInu/Wl82t1kBm0mrvSOQ0+qZkqDWp/689Lnuqx9yCQHdbf1ebcZ1NRJ5Zp+0OddkvIdgRPAAAAADIvGtWdL/frS+fX6VXmEh0zy4nL6eav4oA+eka1GtrH7R0JZIea9jEdtCrk3G8XWysC+s6l9eplll9OIHgCAAAAkFHlzWP6l8sbdOgae8HwUmY5JVzWAPyX1++z9ySQPcKRqL59cZ0/AbL1msesDSnYOma3hmxG8AQAAAAgI8zC4Wc/1KHXbyjXfsUzg0nHQSblXNb+Onpdue7ZO2DvUSC73PZS30yY7NR/F1tFAV37LJeY5gKCJwAAAABpFtX95YP68vm1M2s4ETgtrEoC+tgZ1ZqaCNv7Fcguzf2TesvmCn8+41b///crGjQxFbFbQ7YieAIAAACQNu0Dk9p4d5uOWWdfVuc0oKQSK2swX3RLi71ngexjQqHf3tzs200CXmudR7qGpuzWkK0IngAAAACkxXN1w/ri+XVaagInc2mdw0CSSrwOXBXSczXD9t4FstMte/pnbhbg0IcXXSVB7S4ftFtCtiJ4AgAAAOCrSDiqXc/26I0bK+zFwx0GkFRyZe3DD2yr1PR01N7LQHYKto3pfVZf9WWGo/U5KL2j1W4J2YrgCQAAAIBvugenYpeDHWDCJgKn1FVJQEW3cZkdst/0VFj/fd0+7XeiD7OerHPK58+ptVtCtiJ4AgAAAOALc6vz71xUx1pOftSKMj1ewSVGyA1nPNrlzzpPpUEdtaFc3X0TdkvIRgRPAAAAAFJud9WQjj+92rdFhQu6rMH2OzZXqG2ARZWRGx6rHNKx5u52JSk+H1ifhUPWhHTLS312S8hGBE8AAAAAUicq3W4NAo/bZA0yCZ38KWu//nJXk8YnuY08ckPf4JQ+e26dL+eEJVatvJN1nrIZwRMAAACAFInq2md6dORqa0CY6pkN6S6zHpWpElPWe3GtWY91eh0/anmZrn6ux97nQG74r11NMpeIOvbpxVRxQF+7qN5uBdmI4AkAAADAopm7q53zaJeWrbQGgukMYRZbsXApMLMOVZFVy62BsfXfB1rv4/C1IR2xoVyv21Sh406u1NtPqdQ7T63S27dWxv7/tdbPj1hfHnvcAea14s83f5qZHeY1zWvPbXMxZW3vG6w2X2oatfc8kBvOfaxLB62a6cOOfXuhZX3O/vaMGg0NcelptiJ4AgAAALAok1MRnXp/hw7JldDJbKMJhk4s0/7WoPUNm8r14dOr9Y1L6vWjP+zTSXe0aucjXbr2+V7dtHdAj1QOaW/diOpaxtTSPq661lGV1Y/oIevnN+3t19XP9erMBztUdGur/u3affrmpQ36u7Nr9bZTKvW69SEdUFSm/X5vVSyUssq0bQKphewr67lfv7hBnYMMspFbdlufl9duNOs8OfTrxZT1WTr25Eo9VTNst4RsQ/AEAAAAYMGmpiM67aFOHWZCp1TP7kllxcOm5WV684ZyfeXiepXe2abLnu7VI1VDqmgb08T4tP2uFmdqIqzm7gk93TCiB0KDsTY2P9CpFbe16gdXNOqTO2v1/m2VeuO6kJbEZ0gluu9OLNPGe9vtloDcMTIyHZsx6McswMPWhHTFM1x+mq0IngAAAAAsSCQyc3ndoatCM5eVOQ0KM1kmbDJlbdubN5brl7v2adeLvSprHo3NGIpa259W4agGRsJq6J1UVee49jaP6c7AoFbf0aqP7qjW/mZAbiq+3Q7v54i1Id2+t99+QSC3fPPCOn8C6qIyFVufI2QngicAAAAAC3L10z06KNtmOtlBk7nT1WFrQ/rORXW6/oVetfVPanIqzUFTgsLhqPpGw9rbNKpt97friztrdOjacu2/MjSzb+Nh1IqAPn5mjRo7x+1nArnFXMbq+LldbC0v04//sM9qITs/44WO4AkAAABA0u7dO6Cj1oScZ+Zkosx2FAVii3y/b1uVim5rVU3bmL21uaepa1wXP96l717WoHedWqlXrbX29e/26l+vbrJ+y+Aauenyp3pmbkAw9/O72LI++9+4uF5Dw6m5XBapRfAEAAAAICm7q4d03CYfFgleaJkZTiUBfWZnrbY92KH2vkl7S/NDZ++Edr3QqxNubtYte/rsnwK5J1A/rANXh5w/x4sp6xzwwdOrFWjN3bA5nxE8AQAAAEhYsGVMH95RnR1rOsVmOZXpU2fV6PzdXWrNs8DJUZTZTshdfcNTOtiP4KnE3NmuQk/Ucme7bETwBAAAACAh3YNT+v5l9TN3h3Ma/KWzigN6w4Zy7XiwQ/t6JuwtBJDNwpGojt9WlfpLdK3XW1YS0A17WHg/GxE8AQAAAJjX5FREpWZhYDPTKZPrOlnt778yqB9c1qCK1lFFmAEE5Azzcf3eJfX+nEN+X6azn+i2W0I2IXgCAAAAMK/rn+vVgWawmKnQybRbHNDbt1Tqyqe6FYkQOAG5xgRPv7ih2Z87YZ5Ypi33d9gtIZsQPAEAAADwFGoe03GbKzIXOpUEdbDV9rcvq1eohcWDgVy24d4Of4Kn5WUqua1F0emI3RKyBcETAAAAAFeDI9P62oV1mbuDnTVAfdXqoE6+t1193CodyHl3vNjrz80JigL6wVVNGhgN2y0hWxA8AQAAAHC1/u722KK9GZntZLV57KZy3banT1PMYgDywuOVg/4ET9ZrfubcOjX3T9ktIVsQPAEAAABwZAaIx20q92eQOF+VBPX+bVXa0zhibw2AfPCi9Zn2K3g6fkeVGrq5y2W2IXgCAAAA8Fd6h6b1rUsbYpevOA7y/Cp7EfEv76xVbfu4vTUA8kW59bneb4UP55WSgN6zpVLVHQRP2YbgCQAAAMBfOe/xrvTPdDKhkzUg/faF9Wpi1gKQlxp7JnWIH5fumktz14UUauUGBNmG4AkAAADAX6jrGNe7t1Smf0HxkoC+c1G9GjuZ6QTkq/aBKb1tQ8iXdeP2Lw7o+cZRuyVkC4InAAAAAH8SiUT12xv3+XMpjFeVBPXVc+vU0jNpbwmAfNQxOKX3bi73JXjab3mZHqkZtltCtiB4AgAAAPAnT1cN6cBVDgM6P6skoI/uqFIjl9cBea9raFofPqXSt+DpntCA3RKyBcETAAAAgJhoJKpvXFgXC4IcB3V+VHFA795aqbJmLo8BCkHP8LQ+eXqVP+eZ5WW6/eV+uyVkC4InAAAAADG3vdSrV63xZ+0VxyoO6A3ry3VvgBkKQKHwO3i6+aU+uyVkC4InAAAAABobD+urF9Wn7052pUEdsjKosx7psrcAQCHwNXgqKtM1z/TYLSFbEDwBAAAA0PUv9OnVq0PWYNBhMOdHWe389Np9mpyK2FsAoBAQPBUegicAAACgwI2MTusHVzbGBm2Og7lUV0lQf7u9Sh193MEOKDRmcfHjt1X6E3ITPGUlgicAAACgwD1UMaQj07i208GrQnooOGi3DqCQtA9M6V2byv053xQFdP4jnVLUbgxZgeAJAAAAKGATkxH99qaW9M12WlGmk25tUSTCyBAoRE29UzrM6dyQiioK6LyHO6Qo55dsQvAEAAAAFLBQ67iOWpem2U7FAX3ijGq19HKJHVCoKjomtN8Kn25iQPCUlQiePPxgV4vVeStc66bAkP1IIDHp6FM/v7nN8bUTqY+c06DPXtgYe42FbIt5vtPrmvKDUztz64Q7rb94fPSGLTWO7c6ui5/vtx8NAECWscZm2x/oSM9sp9KgDloZ1B+e51bnQCF7sXHEv7tnEjxlJYInD/MNKE2IACQjHX1qMcHT3DLba4Kbmp7E/lUyG4Mn8x78YgIlpzbnFsETACBbjU6EZxb5Tcdsp6Iyfe/yxthC5gAK1yNB6zs0wVNBIXhycdrjvVbHdR5ExuvwdVX2o4H5patPpTJ4ipcJbxIJT7IxeDLlV/Dz9Sv2ObY3twieAADZ6oEyawCYjtCpJKDXrQ/pnsCA3TKAQnX5k12+Bk8XPErwlG0InlwkOqA0YQKQiHT1KT+Cp3iteaDLbsVZtgZPZt+nmpkF5tSWUxE8AZjNXMpsZpPGL20GMukHVzSmbW2n717ZyGAQgP7vttZYGO14rlhsFQV09dPddkvIFgRPDpIZUJovjcB80tmn/AyeTHkFY9kaPJlK9HLBRJlBo1M7TkXwBMAE9yYEn3vJNcETMqm7b1LHbrb6YonD4C2VVRrUEWtD2l3F+qhAoTPZ84+ussYMfp13isq069keuzVkC4InB+bL4ewvhfNVqge0yD/p7FNewZMJS0wIMrvMtpnnmPWl5luDypS5HNBt+7I5eEr1IuOJ7Kt4ETwBcDo3mCJ4QiZd9UyPDlmThrvZWa//7Usb7FYBFLJwJKqPba/y77yzvEy37uEGBtmG4MnBu7bXWZ32r78cmpkoTj9P9YAW+SedfcoreEokADGPcdveeLldupYtwZMJx+b+LJWLjJt9NPf1ndqMF8ETAKdzgymCJ2TSd6+w/t7265bmc+rxctZ2AiD1j0zrMBN4O5wnUlLLy/RA5bDdGrIFwdMcj9WPWh32r78YmoG424De/A5wk+4+tdjgyTAzmrxCJLdZT9kSPLkFeqkKgJzW63Jr0xTBEwCnc4MpgidkSkvXhD68o9q/BX7jVRrUF86u0cR0xG4ZQCEraxjRgat9Cp6s882rrT/37Bu1W0O2IHiaw1xu5PTF0PzcLAbq9DtT5neAk3T3qVQET4YJlrxm8Tit9ZQtwZPb+kupWGTcLUh0a9MUwRMAp3ODKYInZMqNL/XpyHVpuMxuRUBXPs16KwBmXP5Uj5atdDhXpKKKA/rwjirVd0/YrSFbEDzN4bZuSzwEcPu9CREAJ+nuU6kKngy30MyU02ApW4Int3DI1GLWzzLc9q9XiEjwBMDp3GCK4AmZsuou6++zojKrHzoM3lJVJUG99eQKBoEA/uT3Nzf7F3gXBfTDq5o0MBq2W0O2IHiaxczgcPpSOHttGLeB+OzHIDlmpsjsNYXMvkxkjSMz0DfHwynsMD8zs1u87sCWDpnoU6kMnty235TZx3NlS/BkuG3LYtbPMsxxmfua5jI7s2/n/jxeyex3E5rF735l3oPTrLN09G/z2qaN2Z9NU+b/zc8XG6aZ55u+at7L3DZMmf1sfmeOl9kni2Vew7yWOVZzj6Fp33wOF/ue5uO2T80xNu/VbMNCZzrOxwSupl/Nff+mbfMz87tEmH3k1S9S1SczfX73o//Pfp3ZRfCETOgZmtLXL7Y+X9YgzXHwlqoqKtPvb2nR5BSX2QGY8ZlzrO8hJT6de04s046HE/tOg/QieJrFfJl0+lJovvzGec1qSOZLsNPzU1Gzv8A6fWE3ZX6eLKfXMeX25TuRts2+nPul3ulxc5k2nQb/bmUem+igKtXS2afiUhk8mcc7vY4pp2PkdtxN+cGpHVOGOeZOvzP9YaHM8XB6TfNzr32VyH432+v2efAq834S6SeJbp/X53JumeOdzAwyE/6Yz4TXJZxuZZ63kNlq5jnm8+b0mk41+z0t9pjGmcArmfdstiGR1090+0z/SKR905fM8Xdifu71+Z5d5nFurzMfs91+nN8T3Vep6v9e5+Fkava2Aam0p2lU7z6l0t/1nUqDWmK9/q2vsKg4gBl9A5N6+ynWdxI/gifrnHPE6uCf7mhn7p6H7EHwZDNfHp2+9Jma+6/tbl9KzcAoUU7PT0XlSvBk9rfXQMhpG81z3IKcRGqhA9eFSnefiiN4+nNbbn1soYM5pwXE40GW177yas/8LpmBtlvN11cS2T63sM6rzD5OZEbSYj678TJtJRNomMcuZN/G21noMY0z+2UhYWK85pudl8j2LWS/zw0yTb/wOl87VbLHyu/zeyL7KpX9n+AJ2e6OvQM6wAz8/FzfqTigj55RraqOcbtVAIXuvuCAjt5Q7uu555BVIX36zGr98oZm3fpin8rbxmN30osQRGUUwZPN7QunGTTMZQYDTo81lWiw4fTcVFSuBE9eAYWpudto9utiBnDxMsFBuqS7T8URPP15n7nNdJkvpHFiBpdOrxX/zHntK6/9nqoBqqnZn/+55tu+hQy64+XUp+dyet5Cygz0E/lMmNAj2bBkdpnAym2GmymvY2ostv14eYVP8x3TZGZ6za7ZYYpXG/NVIv3CSMf5fb59ler+n6rPtdk2wA/bH7S+d5zo8/pOy8v0y+uapTCDvcIVVXQ6ovGxaQ0MTau1b0pV3ZOqjtWEKjsnYv9tfmZ+1z84pQnrseY5yE/bHujQ/mZhcT9Db1Pm9U24viKgI1YF9fUL67TNOu89XjWs9oEpe2uQTgRPNrcvvU5f+t0GoKbMl9dEOD13sWUGSrMHZG4hgFNgMB+n1zHl9qXYq+1EvuDP3sZEBiXm9+Y5puZ7rNfgPJXS3afivAY8yQ5ivAbesy8XjHM77qb84NSOqfj7dNuviYYXs7nt10QG6F773et4mc90vF+bSiTIiG/PXF7bZ/rkYkOS+fqp03PiNfs9zvf5NTVfcGiObSpCH6/ZUl7HNJHQafZ7nm9WlltbXsd0scGHCXFSsR+9gjMjXef3dPf/xe7/eHn1M2ChBsfC+verG2MDMscBWyrKGvTtb9X5T3TbrSJvRaWxkSmVN4/qgfIh3fRin859rEuld7frhNta9cvr9+lHVzXqu5c26Ivn1+mj59TqY1aZPz9yVs2f/vtL1u++c0m9/sPqm/9zQ7N+d3ur1t7boUue7NGtL/frsZph7euaUGSKRaNz2b+Zc4/fNzWYWyaEMpcVn1imo1YH9aUL6rTp/na9WD+i6WmC8XQheLJ4DfrdBnFuX37NzxPh9NzF1tzLGsyXdKfHmZ8ny+l1TLl9KfZq2+13s2v2NnpdfmEe53SMzM+8BihuxzVVMtGn4rwGPMkOYrz2vVPQ4HVs/eDUjqnZ79Ntm5IN9JzCgdkzLLwGtl77fe7xMttrts0tGDNhoFdQ4RbKeG3f7EG3+W+zTbPPJ+a5Xn3BlNkmL7Mfa9owweXcc1ac+YzMN1vH6zPsdEnk7DLbasKG2cfF/LdpM9EAwu2YzhekmDacjq15Pbe23fateY7T4+eW2R7Tb+Ltxt+r02Nn19zPjtPrLLZfpOv87rWv/Oj/BE/IZi39U/rYGdX+ru9UEtBbtlTqyZphu1Xki8mJaT1fO6xLn+rRqttb9dVLG/S5c2v1N6dV6w2bK3TEmpD2twf5sVpulQkazEL2JuycXeZxs//fPMY81jzHfv6BVl86al1Ix1r96fgza/SFC+v0H9fu046HOnTH3n719Fl/J0UJD3JBW++EPnW29R3WHGun80Y6yoRQVj9bZm3D26w+9a9XNuqWl/oUZpad7wieLG5fwL0G/GbQ4vQcU14DosXwatPpX5XdBtzm58lyeh1Tbl+K3do2X85n/7953OyBjPnTDLrjg2evwUL8MV7ctiOR5y5GJvtUqoIn06bTa8TLaZvc9rcpPzi1Y2r2+zT9yekxXsdiLreZX+bncV591Wu/x4+X2XduQcxc5nMy97MULzNwduK1ffEy+yT+WXTiti/j5bX95vfxQX2ikj3nGfO9z/k++6Zfe4Ua8XI7pl6fv/nCTrPv3cInp+cmcky93q85Xk7PcSqv11lov/Da/lSf3zPd/w2n55hK5jMBpEJ5+7iOXmUPwJwGZqkoa1D36Z21Gh2dtltFLopaY/HRybDKGka0/cFO/ctl9XrbKZV6zcYKHbImpCWldlBkggQTIsXXDUtl34q/nn3ZVDzAOmBlUK9eX643bqnU53fW6KQ7WvVoaGBmLR9yqKx0f2hQr99Y7s/C4gspsx1Wvz18bbk+d06tbnmxT5OTBFB+IXiyuA3g3AY2hteg3IQOqeY1QHBb18LtS7n5ebKcXseU2+DLK4CIVyIDC7djk+h7MMfJbSDnNcBYrEz2qVQET2bfeA2+3fa/13H3g1M7pua+T7c+MN9AMc7pfZljPJvXwNZrv5vj5dUv3HgNgp3el9f2mTLvJ5HPhPncOj3flNcA2vQnp7ByPm6fJbfzntdsp0TOOcZ8/d+U0zH1+gwnGi64hZxme+aa75jOF6QYXueLeDm1PZdXv3AL3NJ5fs90/zecnmMq0b4BpMojVYMzYYHTQCxVtSKgH1/TZLeIXDIyEVGjdT684+V+/fr6fXrHyRVaFj+u8QAo1eHSQupPgZSpmSBjiVWvXVeuH15Wr2ue6VF1+7gGxkz4SRKVDXY8Yn13TfdldomU3a+XWH9+4Zza2ALoI+Nc0plqBR88uX3JNzXfIMltgDN3QLpYXoMg86Xb7cuyWwiQ6Jf62Zxex5TbgNorgDDlNmiczWugkMwA1m2g4DYYWqxM9ymvgaTb8ZrNbONCBt2G13H3g1M7puZun9sMtESCCLM/nJ47d7Do1V8T2e8L4dSWKaf2vLbPVKLb6LY/TCXyuU6WW392Oo+Zc6HTY00lGizELWR/uW1rsn8nmMc7vc7c80cqjqnXPotXIgGt1z+OOAUrXts+33lytkTP76nYV8Zi+r/Tc0w57R/AT5c+3j0zc8RpAJaKsgZvB64K6oxHOu0Wke0mp6MKtY5p1wt9+sk1TTp2fWimj2TLzJRkywQJ1vYftTqkb11ar0ue7NaeplGNTRImZMrERFj/tatp5jJKp2OWLVUa0AFWmXXwdtcMcwleChV88OT2pTWRAZTXjIPZl+Aslte/sHp9Wc7W4MkrLJttMcdmNrcgKJHQYSEy3afcBr+m3I6XGTSatr36Wry83ke2Bk9ug8VE+qJbaJVMCOD1OV0Mt/2d7EA/kRkts7kFIws5t8zHa7vn8vr8zA0iEuHVn52Oqdt+SXZGm1ufm/sevPZNMmGX1/tM5pg6Pd+U02uk+/yeDf3f6TmmCJ6QTuFIVL+92TrH+Lm+kzXoP2J9uR4IDtitIlt190/qxhf79Ksbm/W+bZXaP74WkwlunI5trpUdQC1ZXqa3bK7QT/6wT1c/16u2ngl7DyBdqtrHdfz2Kn/PPaksq98cvT6klXe2aV8v/SUVCjp48vqX3kQGKV7PT1Wo4TWQmu/LqttgIpmBRJzT65hyGnwZbm2bSnTfuF1CkewA0u1f4heyH+aTDX3KK3habJkBmldQ43Xc/eDUjimnfmkGtE6Pne+4OPVDp8Gx18DW7XOyWG77O9ngKdmBr9u+9OMz5bXdc7mFGaa8+q0bExg5vZapucfUa8ZPMjN4DLd25x4nr32TqstzkznfuvVHp36R7vN7NvR/p+eYSrZ9YDHMzJbvXWF9Vv2cyWK99ptOrlQng/usVd85ro33tOvT59Tq1WtCMwt5Fzscy3wqc0me9T4PWxXUx8+sUcntrQq1JPf3Mxbu3tCglpnzTi6Fmtb2LisO6JNWf7n7lX5FWTxsUQo6eDJfcJ2+BJpKdJDi9gXU1EIGOrOZL9RuX84TGeAlMwiYj9PrmJo7+Ipza9uU23Nm87qcIdlBnOH0OqZSLRv6lNcgcjE1X+hkeB13Pzi1Y8qpj7nNjPCa7eB2PJ1mn3kNbBPp817MucC8hjm2JlAw+9lt1oUpp4Gs1/YlOpsuzq2PJTtzZDbTt8w2mn1uXt98Drz6k6m5TPtOj1vIOc9I5pi69ZVkZh7FubU79314bV8ys6y8zhmm7yXK7XjN3e5MnN+99lW6+r/Tc0w5fV4Bv4xNRvS5M6v9HfxZg7W3nlolVnjOLtFoVDVtY/rdjc06Lr5uk7mcLl9mNyVa9iyopdafb9hYoZ9c3aS9jSOK0F/9Y+3b0+7vyP7L7JzK9JfigF61JqRVt7VqOLZmGBaioIMnt0GKGfAkyitoML9bKDMIc9u+RC4PMhIdBCTC6XVMzR18xbm1bSoRXoOEVFaqZUOf8hpELrTM8VxMnzPlB6d2TLn1S7ewxm1w7fR+3IIErz7rtj1OzGPNMTRte4VLXuU0kE3V9hlefSwRJlwwfdnMUPLqM/PVXE6PMbXQgX0y+8yPz93cMvtqtlQd08Uezzi3Y5nMdqeyZkvVvjIWur+cHm9qof0TWIjB8Yhet7bc6ntzBleprJKAvn9xvd0iMm0qHFWwZVS/vWGfDl0dmhlIm5knTseu0Mrsh5Kg9l8Z0o+uaNSztcMa5a5mKdc7Oq0vXWCNkXLlMjunMndwtPrLP+6sVXkzM+UWomCDJ69/cU02MHKblTTfv3568bpkJNEvyYkOAhLh9Dqm3LbFre1E94lX+JLKSqVs6VOpHACb4COZbXc77qb84NSOKbd+6bZvnC5jdDueboPExQxsTahnXnehQdPcctrGxWzfXF59zItpx2tGX7I1l9NjTC3kroFGMvvM65ydqkomwEnmmC70eM6V6N85mTi/p2pfGQvdX06PN+X0eQX80tZvLul3GFSlskqDOuGmZrtFZEo0KpW3jmntXa06Zl35zOwmp+NFzVRxUIdYf/7sD016snpYU9PMgEqV2q5xHbnK2scm9Jy733OtigN619ZK3f5yv6bD9JFkFGzw5LZ4a6prIZcNeH0pT+YLaqKDgEQ4vY4pty/si23b64t9KiuVsqVPLXbfmfDDDKKTvfzEcDvupvzg1I4pt37pFiY5zSJ0O55u+3+hA1sz2ypVgVO8nM4TC90+J159zI0fn4/ZUvn+4pJ5Ta++n6qae/5M1XteyPF0kuh5PxPn91TtK2Oh+8vp8aacPq+AX+rax6x+5zCYSnGtu29hgT9So6t/Uqc+2KH3b6ucubwpHwb86aqiMr1pfblOuLlZLzWM2HsUi3HTC735FXwWB/S6deU6+6FOTXLXu4QVbPCU6oGeW5nBVjK81nVKdgZVooOARDi9jim3L+yLbTsTA5PFypY+5bXvzMwPc8zcarHcjrspPzi1Y8rrvbjNuJk9s8uEUE6fQ69LJk2bcx8fL7ft8fq8zy3Tv8z+NcffHGPzmm6XdjoNZBeyfW68+piTZGYDmfdo9rNpwxwTrwW+Z0vl+4tL5jW9+n6qau75M1XvOdnj6cZtH8zdbq/2UlmzpWpfGQvdX06PN2VeD0iXVxqGrX7nMJBKcV30VI/dItIpEo7q9j39+uzO2pnLmnL50qZMlrkEr6hM79xaqTV/bFNn//zLTcCZWTrrv3dZ3wPz7fJO67N1+Mqgim9t0eQU4VMiCjJ4cltk2I8yg8VEmcGu20DSDE6TnT2V6CAgEU6vY8rtC/ti2/b6Ym9+l6pKlWzqU+Z9OT3PVLIDrGS5HXdTfnBqx5TX+3Q7VrODXbdZh16zwBYysPUKK82+NKGL1+LObvvbqW8vZPvcePWxubxmcJrzmgnSzH51W0PMa7tnS+X7i0vmNd2OhTnG8fPNYmt2OGqk6j2b13Z6DVPJcNsH5uezebU3+/0utmZL1b4yzGs7vY4pL06PNzV3WwE/PRYcsPqdwyAqhbXUGoyZdpB+Ve1jOn5H9cxd6pjltPgqDmhJSUDHn16tu17pY8H8BRibDOstm62/7/KxP1p9wyxS/1+7mjRhvU94K8jgKZVrjCRSXoPV2bxmBST6GrMlOghIhNPrmHL7wr7Ytr0GCQu5fNFv2dSnvAZFyQ6wkuV23E35wakdU/O9T7fAJ963nN7HfIGfV5912h63QMaEMYkeJ7f97TSQTXb7vCQz8Hbb1+Z85xY2zea13bOZgM7pMaYWOrBPZp+57ZP5+s1ipOqYJnM8vSR63vfabr/O76naV8ZC95fT400ttH8CC3Hfy32+DwBN8PRKXeJ3xERqbb6nXfubhZAJnlJTZj+WBHWQ1a9/dd0+NXRP2HsaiXipbji2eLvjvs2HsvvHT62+MTLOHe+8FFzwZAY6Tl/8/CwzwJqP16yAZC/Xi0t0EDAfMxBweh1Tbl/YF9t2KgcJfsu2PuU1KPJ737kdd1N+cGrH1Hzv020fmc+aW3+fb3CYbJ9121dzZ7V4cXsNp21Ndvu8ePWx2dzaTCaM8druuZweY2qh51Cv8/LcfZboPkmlVB3TVG17ouf9VG13MlLZ5kL3l9PjTTl9XgG/3PBcr++BxDJrgF7Vkn3/SFgohken9dmza/Pv0qZsKGufvv/USt3yYp9GJri8KhGb72533pf5VNY51cyM+9UN+zQ4xswnNwUXPHmtF2K+/JkvoAstp9eMl9e/7KdyXafZ3GbhJPuaXu/N/M5JogMQL07PN5VtX9KzrU95DYrMa/rJ7bib8oNTO6bme59uYaEJRNyO53wzMbyOl9P2OD3OVDLcZhM5fUaS3T4vXn1sNrfHOW2fG6/wZ65Un0e9ZqHO3Wep3L+JSlWbiR7P+SRz3nd6nKlk+kYyUnl8Frq/nB5vyq/3DDjZ+rB1Tk1D8NTQOW63iEzYXTGoQ1c7Hx9qkVUc1KEnhfSbm1q0z2N8hxn/cG6BhKCxmU8BFd3aovFJQkknBRc8ua2hZMorHEqE1yDFbRaDadNtmxayrtNsqRpMmNkCTq9hyu0LeyqCJ7f94uelKwuRbX3K67gnO8BKVq4ET4bbvnUKc7wWFY9LZmDrdVlYorxmIjoNZJPZvvkkem5xC7+TGWh7fQbm8up/XmtlOTGfXbcgy9TcfeYWZpoy78EPqTqmqfq7IpnzfrrP75no/3M5Pd5UMp8HYLG2PJKe4Km1l+Apk6JRqfS2VhYX96vMDJcVAf3dWbXaXcFlpW6aOsb15s2VhTP7zuoXB1h/7jB39WQ5sL9SUMGT12AvkYHlfMy6O06vbcotcPEaVC1kXafZvGbiJPrayQ6+4pIZgLjxCrySuRzJT9nYp7wGRckOsJLldtxN+cGpHVOJvE+vgejcSuTz4vV6c7fH67GJ8vp8OA1kk9m++SQ68HbrD4kOtL3CHFNzeZ3zkv08er1HU077zCuEXsw/IrhJ1TFN9HjOJ5nzfrrP75no/3M5Pd5Uop8HIBXSFTy19BA8ZVpL36Q+tt36Dl8og/5MVHFAx6wv1/mPdSrCwuN/5cpnenTomtDizznm+W7l9PhMlrVNh60O6frnFjeOz0cFFTyl44uuV0gzd+Bh2nR6nKlU/Au51xdtt9BiLq9gzJTbF/ZkBiBuvGZ0mP2c7AwGwwxkUxEIxWVbnzK8BkXJDrCS5XbcTfnBqR1Tib5Pt0vVZleiMzC8Pm9zt8crsEwkoPB6vimngWwy2zefRAfebjOeEj2/uT0/XnN5nTNMJfqZ9NpX8XLaZ17ndBNKmfNPssyxNucZJ6k6pgsNUuZK5ryf7vN7qvaVsdD9lYq/F4HF2pymS+2auwmessHNL/bpABYa97dKAlpq/fmb65vUMzxl73kYv76uWfutSCD4LDFlPc7M0DNVZKosVkutnx+0KqhD1oT+VAevDsZ+tsw8N/Y46/GmHfMa2dDXrffzpo3lsYXV8WcFFTy5DeDNz1Ml0VkI5ku12/YsdIDixCu0mG/w5/XlOl5uX9hT9QXb7XVMmfeWzIDBDArj+yNV3Pav+XmqJNqn4ryOW7IDrGR5HS8/OLVjKtH36TVDJl7mMYkwbTo935TT9jg9ztR8wajXuSNeTv0i2e3z4tXHZvN63HzBwnyhtyknXn3Q1Hzhk5ndNt/+NeW0z8x52+u55tyeSLBomNeK7z+382aqjmmix3M+bvvebfu9jpXZj8m8h/nO76naV8ZC95fX+11I0AYsxM7d3WkJnurbx+wWkUkj42H99A9NM4Nzh2NFpbBKAvrqRfWqaSd0NQaGpvQZs76TCYTMOSceLJmQaLnVH02dWKZlVt989eqgXr+pQm87pUofP7Nanz+/Tl+9tEE/unaf1t/Zqp2PdunSp3p0iV3n7+7SWQ936pR72/Sz65r11Usa9ImzavTajeVatsJ+bRNmOR2ndJX1Xv9hZ43a+lgHLK5ggievS5ZSMbsoznx5dGrDVHzmhBlQeF2SsZgyX4hnm2/wZr4Im30TD7rMn+YLvNcX5Nnl9oXd7fnm58mYbwaDKfMe3S6FMsfDBAdzZ7akQjb1qdm8BkXJDrCS5dVv/ODUjqlE36fp707Pn13xz8Z8kh3Yep0DTPg0N6Aw22GObSKhyNzzgJHs9nlJdODt9Rkx78MpBDLbkuj5x4nX+4yXeX2zbfF9bP40/z+3Xa997bbPzHtyeny8zGuaMNktaDCva34/u22386bXe3XbPieJHs/5uB03t+1P5/k9VfvKWOj+8vr7OP55iJ9vzHsz7SS7bcB87tvT53vwtHRlUOVNI3aLyLQX60f0ri3WucYM+h2OF5XCWhHQx8+o1hPV/GPC/aFBvd5cZve7vTpqVUDv2lqpD1v75isX1umn1zbphNtatOqedu18rEs3v9Sn+yuG9FTDiFq7JjQ+Oi0lc+liOKr2ngndVz6oHQ916ruXN+jotVbbJnDN1Awo0671mVt+a4ump1ls3CiY4Mnrkg23L7ULNfdL8OwyXyLnC4MWU3MHnIl8sZ+vvL5ku30pTnYA4mW+gdzsMl/eTRtex8BUKmRTn5ptIccrVdyOuyk/OLVjKpn36fV5TCZANG06vYYpp+1JpF+b4+7Wn01w5ba/554HjGS3z4tXH5trvs+iKfM+3N6L14w/N17PSbTiQYDT70x57bNkzvHxYzw7aJpb5vdOUnVMkzmeXtyOodv2G+k6v2eq/8+WzHuNV7LbBsznoVesz0IagqcXahh4Z5PtD3ToQHN8MjUIL6RaUaa3ba3QHdZnrZBVtI7p6md7dWvZoJ6sHdbeljFVdo6ro39Sk+PhmRXwfdI/Mq2nake08o5WHbexPHOha0lAr14V1J0F3hfiCiJ48prVYL7IpprX5TvvO6Pe8eepKqcB52IGYWZwazj9zpTbl+KFDEC8pDqsW6xs6lNzwxGvQZHfgxi3427KD07tmErmfZrHOr2GKb9fZ6EzH00fMzMi3Pa303kgVe/TSGbgbUJYp8clUqZve223l8XOKjUhwUL3mTk/LLb92eV23kzVMV1okDLXQs/76Ti/p2pfGQvdX6ZfeAWMTpXstgHzeb7azKJ2GCClsJZYdfdLLKybTUbHp/W5c2qZ9ZSusvbzMRvK9YdneuwjUIB8DJYSFQlHVdMxrt/e2KxDVodmLvdzOl5+1oqAPnVGtVr7ueSuIIKnZAbtqeA1y+iA1ZWOP09VOQ04jYV8sTcDp/i0f6ffm3L7UrzQAYiXhfxrsVPNt4ZOIrKpT5mBTPw4GV6DIr8HMW7H3ZQfnNoxlez7dJpBYX6WDNPm3NeIl9v2mPAo2YFoPHQy3Pa303lgIdvnJtmB90LOP/HPkdd2ezGfCa/+6FXmXGN4tT37M+dmIe/bqcz5xkmqjulCg5S5FnPe9/v8nqp9ZSxmfyUbxCa7bcB8KppHrL7lMDhKcW19ODU3WEHq7K4a0mHm0ieH40X5UCVBvcra3xc9an0WsiCEKXS7Kwf16bOt7/uZWIB8RUCb7mkr+G5QEMGT1788xwdwqbbQAc9iy2nAGef1ZXlumVlSswdWTo8x5faleDEDEC8mgFnoYM4MSFL1JT7b+lR8oGx4HWe/BzFe2+gHp3ZMJfs+nQa9boN9N6bNua8RL6/tMX060fOFedzs/uX2PKfzwEK3z8lCBt5mfyYSspnHzN5+r+1OhHmtRMO9uft3sW0b5jUSPb6zy2yzOdeZ/uEmVcd0IcfTidv7ND9PhJ/n91TtK2Ox+8uET4n2yWS3DZjPvp5xq285DIxSWdagrvTOVrtFZJNVt7fOLPbsdNz8KjPINws9m9lWpkz78Yrdvcyu+M/ijzPPyfVLA0sCOtqET491KRwmfMq0vsEp/ebmZh22aubYOB4zn+rItSGVtyR2g5l8VTBrPGGG+WJvBoBmIDD3i6/5mQmcvAY62SL+PsxgwykEiq+bYt6P+ZKfyOwEIJPMANMMuuf2Z/P/5uf5MAA1n0On84/5b/Mz8zs/PqvmNU24aM4Xc2e3xc8TTvvX/Gz2Y2dXskygZQIL057TDDtznM3vzGMKPWwohPN7/LNg3uPcv4vNezY/n/0PCkCq9I6EdchK54FRyqo0qJ9eubh/aIQ/2vsn9YkzqmeCHadjt5iKBUx2aGSCpBNn7lp2aGlAx24s13u3VepDp1fr4+fU6pPn1ulrF9Xru5c2xOp7Vn3u/Hp9wvr58WfW6P2nVemtm8t12El/fp3YQtEmmMr03cqSLWufvGZtSBc+1kn4lAUi0ajOf7RTb1qf5rWfrH77k6sWf9VNLiN4AgDAQapmAgFAthidjOj4Uyv9nUliDbQ/tKPabhHZ5paX+2fCx1T0gXjYtCKgg0sDOv60Kn3rsgatvqNVFz3RrRutth6tGtaLjSMKtI6pomM8FrzX9U6qc2Aqdsv9eO3rm1St9buqzgmF2sa1p2lUj1nPvcF6jQt2d6nk1hZ94+IGvXdrhZb9aVZUGoODxZS1nUeuDurKJ7vto4BMikaiuvmFXr1lUxrDJ+uzYmY9PVHpz5UxuYDgCQAAB26XfZnZNgCQiyamI/r2JfX+Dtit137zyZUaGGS2eTaamIjoF7usv9+WlzkfP7eKh0xWmQXk918Z0t+fXq0Tb23RXXv6VN42po7BaQ2MhX25fbx5zf7RabUNTOnl5lFd83SPfnxtk9651ayf+5fb91fbng1lbZcJHq5/roAXHM8yN73Qo9eamU/pmkVXHNC/X1m4s54IngAAcOC2Do8JpAAgF02Fo/rZdfv8/Vf+0qBes6Fcz1UX7r/sZ7tXGkf1PjPzLZF+YIKcojIdtCqoY0+u0Dcvrtelu7vU2DWuaas/ZXLB5IjV9uhERC/WDWvdH9v00dOrdbTV95aZbV5RNhNGOb2nTFVJMHa3u3vLWL8vW5j1tw5eFUpPX7H65XHWZ+jJmsI8NxI8AQAwh9dd1lh7B0DOsgbqZ9zf4XvwdNDqkM7dzWVF2Wz7Qx060Kyh5DbgNn2kqExv2FShr11cr3OtAXpz57j97OwUCUf0dNWQTrytVR89s0YHmUsKzdpQ2RRAWfv13adU6vnaYXurkWkn3Nzs7zlxdq0o05o/ut8MLJ8RPAEAMItZf8JpAfB45eJi1gAQd09Z/8ziz06DolSVNYj73xua7RaRjUZHp/WV8+tmZjTNPnbW/y8pKtP7t1Wq+I5WPVwxpMnp3FsUu6V3Ulc+06MfXNGgo1aHZgKo2e8zk2V9/v7urBrVZXmQVyiGRqb1pfNqrfOWw7FKda0I6DNn16qxa8JuvXAQPAEA8opZg2mhd+c0oZLTndTixWV2AHLd3ubR2ELQjoOiVJU1uPqH8+o0NTFtt4ps9ELtkI5YE/qL4/aBbVU659EuVbSNK5IHd2EbGZ3WwxWD+q9rmuzb6NvvNdNl7etvXVyn/hE+I9ngqdphHbMuDZfcWa+/zDr/3vxK4V1uSfAEAMgrs0OiZAKoi5/v9wydTC000AKAbNHUO6kPbav865kuqazigN5xSqVeqB+xW0W2WnNXaywEMWvPnPNwp1r68nNW7/hURI9XDukbF9Rpqemjpv9n8hI807b1OTnxxubYXdaQWSZkXfvHtuQX3V9IWW0U39biyyL82YzgCQCQV+aGRSZMOuHOjliwNJuZ3WR+Zn43X+Bk6uc3F+Y1+QDyS8/wtL5xaUMsbHAcFKWirEH1wSuDuuwp7uCV7ToHp3T6fe3a110Yl/5MTUd1zbM9+sBpVVpqwh8/A9gEyoRgFzzG2pHZINQ6pg9ur/J/vSerz33s9Go152nI64bgCQCQV5xCo8WWuXwPAPJCJKoN6fiXfev1f31TizJ62zPARYc16DeLSr96Tbm/Iex8VRLQ6zeU69GKQXvLkElr725PS39YUlym5xsKa0YowRMAIK84BUeLKRM6saA4gHyy68U+/xdbtgZvn2IBZWSx8HREt+3p10d3VGc2fCqe+aw0dvFZybSX6kf0zq2V/s96svrbRY8X1p0/CZ4AAHnFKTxaaHF5HYB89EzdiI7bXO7vZUalQS21Xv+2vQN2q0B2qmof039e0+R/2OBVKwL6vxubNTYRtrcKmfKjqxrTcrndT6w+N5UHC/gniuAJAJBXzLpNn73Q+tLgECQlUoevq0p6YXIAyCVtfZP6ormVvt+zPJaXafmtLZqaKqxFdJF7hsfC2npvuw4x/dbvuz46VWlQB1i167lee4uQKVc81a1DVvt8hzvrtT++vUqjk4VzbiR4AgDkJXN53GmP98ZmLZnL5Uw5BU1mYXHzO/M483gAKAT/75YW/9d5Kgnq3Vsq1NhTGAtXI8dForr0yW4dsdb03QyET9bn5T1bK1XTwSV3mdTWPa43bra+I/rcB/a3qmtoym41/xE8AQAAAAXmyqd7dOgqawDk57/qmyoK6NpnCfWRO657sU9v2GguRXXoz35XcUD/dU2TwgV0CVY2+uzZNWkJHytaCmd2PcETAAAAUGBC1oDnPael4dbhpUF9xhrETXC5HXLIHa8M6I0bK/wPZh1qWWlA1z5TWAtPZ5sTb21Oy7F/IlQ4a+ARPAEAAAAFJ6pvXFyflrt5LbUG0g8V0AAL+eH2V/p1xFqf1/pxqpKA3rutSnXc5S5jzn+i2/nYpLKsfnX10z12i/mP4AkAAAAoQNsf6tABK2cGQI4Do1SV9fr/fHG91SKXDyG3XPNcmi5JnVslAf325hZ7K5BuT1UMaqk5Nzodm1SV1adOeaTLbjH/ETwBAAAABaixfUyv35SGy4ms13/12nI9zKwn5JhoJKodD3Zqf7PeTxrW/PlTWW292fpsPlI+aG8J0qmmdVTL0hA8nUzwBAAAACDffeXCOmsAlIYBdXFA/3pFQ+zOYchz0aj6R6ZV1TmhV/aN6pHqYd0WGNSuF/t09XO9f6prnu/VzXsH9EDlkF5qGlVlx7g6BiYVmc6u9cDGJ8JafWerDjSLjadz5lNRmX58TZPGxsP2liBdmnvG0xI8bSF4AgAAAJDvrn22Jz2DaWvQ/pp15bF1c5B/Boan9UTNkC56slvFd7bqu1c06MNn1Oitmyq0zCxgf2KZay0rKtOb1of0ge1V+sqF9frNzS0689Eu3RMcVFvPhN1CZpnw6fe3tGip34vxzy7rc3nIqmBsoXOkV2uagqdNDxM8AQAAAMhz/cPTesfmNN29qyigf76kQb1DU3bryGXTUxE9FBzUittb9fnz6vSWLZVaEg+Ziqwy/21mCTn1hbllHmcebxa7t56/1Hr+MevL9cmzavSff2jSrud61N0/abecGcNjYf3s2kb/7wQ5u6z98e2L62IzyJA+jZ3pCZ6ueYbFxQEAAADkuUgkqpNub03PYNoaaJnZL1cV0GArH3X2T2nHgx36+JnVOnpDuZaatY9M0GT+TGWAaV7PBFErynTYmpDet61Kv72pWaHmUXtL0q9ncFrfOL92ZtucttmPstq6Zy+zntKpvGk4LYuLP7y3cGaAEjwBAAAABeylphEd7PcgK17FAf3NqVWq68yOS6iQoKjU0DWhTX9s1ZviC9KbsDLVYZNbmTbstg5aHdKPrmzQ83XDmphO/5ph1R1j+vBpVemb+VQS1Od31mgqy9a+ymcPlw1oqdOxSHG9WDNkt5j/CJ4AAACAAmYuIfrx1Y0zs1YcBkcpL2vA/rsbmxUOs9B4LmjqmdS2+zv01k3l6Qtb5quSoA5dGdT/XNekPY0jsZl76fRwxaDeuD59+2OJVQ+UMespXU57uNPxOKS6atrG7BbzH8ETAAAAUOBufaVf+5vBUDpmr1h1gFU3v9Bnt45sNDIe1h+e69Wnz6qZCSXT1DeSKmu7zBplm+9tV0dfeteAOueRLh1iZgqmY7+UBPRPF9bF7hgI//1q1z7fj6s5B3YNFs56dwRPAAAAQIHrtQZA37y43hrIp+/yoXdtrVRlAf2Lfy5p7BrXj69t0uGrrGOVrplwCy1zCV5xQP94bq0eDKZvVtDEZEQ/u6YpPcGT1cZR60LaXTFotw6/RMMRfXhH9Uy/cjoWqSjreH7wlAqNWn2oUBA8AQAAANBFT/ToIHtQ5DhYSnWtCOh7lzVobII7dmWTR8sH9IFt9hpG6eoLqSirPx2zPhRb+HxqKj0D+taeiZl9lejd+xZT1vH4+a59dsvwS3XzqF63scLfY1oS0HcuqddEAa3bRfAEAAAAQP2DU/rMztqZO4k5DZZSXaVBLbEGd2vubuMSoixgwprzHu3SEWtCM7M9cil0ipfVn5YWB/SLXfvUmabLmO55pV8HpGNxfut9vfe0KgVbmCXopx0Pdc4cTz/7v3Usf3tzi8JpXpsskwieAAAAAMRc9mR3+tatMVUS1GvXluumF3rtLUAmDI5Oa9XtrTN3N8zFwGluWQP7b11Up9p2/0Mas0j+727c539gax2XZaUB7Xysy24ZqWYus/v6RfX+H8uigK57pttutTAQPAEAAACImZgI61Nn18zMeHEaMPlRxQG9a0uFdlcP21uBdOodmdavrtunA3J1lpNbWf3qH6y+vKdhxH6n/mnoGteHTrMvT3TallTV8jJ97/JGDY1yeaofHi0f1Js3mcvsfD6OxWV6vrGwzncETwAAAAD+5J69/TrgpDQGT6ZWBPSh7VWqauUyonQanYjoZ9c2xQbCeRU6xcvqV586vVp7G0ftd+yfS5/q0TK/w7uSoN6wvlxP1RLSplwkqt/f2uL/YvrWMfybUyrV2JPeuzBmGsETAAAAgD8xlw79+MoG/2dvzK0VAf39mTVq7p6wtwR+Msf5f3c1xQbCeRk6xcvqV2bmU53Pl931DaXpzpDLy3QOl9ul3PMNw3prOmY7Wf3xh1c1amA0bLdcGAieAAAAAPyFvc2jOmZdKP2BhDUo+8K5tWruIXzyVVTaeFerlpjjm8+hU7ysfvWdSxvU7fOC4ze91KcjY4uzO2xDqsqsX3VxvfpGuNwuVcYmwrHLTX0PDU2dWKbTH+60Wy4cBE8AAAAA/oKZDbPh3vb0z3oytSKgr5xfp6aucXtrkGpXPN2jw1dnIFjMZFn96oQbmxX28Rb201MRff0Sn2cLWsfsNWuCqkjDwumF4s5X+nVgOu5MaB27V60K6oHyIbvlwkHwBAAAAOCv7Oud1D/srPV/zROnWhHQl8+rVajZ/7V5Cs0ztcN6+8kVmQkVM1xLSgI67zF/Z5vcW9avV5lZT36GekUB7XqOO0GmQmPXuD64rcrfWWrxss5rn7HOqU0FeDkxwRMAAAAAR3e80q9j1penZ1A2t6zB9Ud2VOvxykF7a7BYHf2T+toFGQoTs6FKg3r9hnI9VeXfjJNoOKp/uqDO3+CpJKCf72rStNUWFm5kdFrfv7QhFgg57udUl/W5O/HWVrv1wkLwBAAAAMBFVP93Y7P/C+66lTUgPHZzhW56ntkdixWJRHXKfR0zg2w/Q5FsL+v9f+n8Og0N+7fe0x/39Pm7j63XPm5zuYYnCmuB6lSKTEf025tatCRdM/9KgjpyXblu2tNvb0FhIXgCAAAA4Kp7YEqfPKMmc+GTNTA8fE1IJ9/dpvFJBtoL9XLjiI5aY+3PQg6dTFnvf2lpQKc80GHvmdQbnQjr49urfN3XS6wK7huxW0QypqYiOunONi2z+kHaPg8rAvrUObUa9DHwzGYETwAAAAA8mcvdjlqbwcWorXaXWIPE/7ymUTUsqpy06emovntJfWYumczGKg7ofadW6pV9/q0htvPRLt8vaTz38S67NSRqdGxapXe0xsLHdJ7PllptrbmzMC+zMwieAAAAAMzr9Ac7Mr8gtTWQ/9jp1bruhT5FI6xvk6g7Xu7TMqf9Wci1vEwn3dGiaZ/uclfVPq7XmfXR/Ao3rNf9n11NdmtIRG3HuH52bdPM7M00hk6mrddvqFBFS+HeLIHgCQAAAMC8Rici+u8/WIO2TC9MXRzQq1YH9avr96mqjdlP8xkbm9bfnVObuUsls7VKg3rNupD2NPpzudrYRFi/3GU+Lz7td+t4/u2OaqslAthE3LN3QJ88qyYz5y+rr/3smsIOCQmeAAAAACSkqXtcn91Zm767QLlVSVBLVpTp3adW6pLdXZqc8mfWSj644ukeHbbK2mfpnOGRK2X1oRNubPbt7nDXvtDnX9BhfQbesLlCfYOTdmtwYu7kuPzmZh29LpSx89YS67P3ckNhr8dF8AQAAAAgYU9VD+kdWyoyf9mdqZJAbJHlf9hZo0crBjU2SQA12/RkWN+4uN6/WTd5UEevCampe8LeY6n1SvOo3nNqpT+fldKgjlpfrudrhuzWEBcJR9U5NKULH+3UO7dY+z/dl9bNLuvY/9uVDZryKdzMFQRPAAAAAJJy3XO9erVZbDxbFqu2BpVLrcHlj65s1CMVgxoa4+53xn3BQb1+Q/nMwNtpv1GxvmPumOiHiYmw/v3qpth6Uo5tL6as7T54TUgXP9trt1bgolL/8LSeaxjRKfd36L1bMxw4mbLafvXqkJ6vG7Y3snARPAEAAABI2tmPdWr/k7Is0Cgq06tWBvWDKxu064Ve9fQX9mVIJ93R6k/okU9VGtSHt1dpcsKf2XJbH+z05xIva7v3t/r6xj+2KTIZ1sjIVMHV0NCU9raM6a6yAZ1i7efvXV6vI9da+8Zc3pjJwCle1mdvxa0tmuJSYIInAAAAAAsQjWrj3W1akm2zacyA0xrwHb4qqH84t1ab7m7XK2YB6QK7C15j94Q+fXYWrMeV7WX1l8PXhHR/YMDec6l1j/W6r9vo36yzt2+p1NcuqtM/XVh49eUL6vQ3O6p1lJl9eWJZ9gROpooDes8plXplX+HeyW42gicAAAAACzI5GdFJt7XMhBvZMuCLl9kea7vMJXiv31yhb1xUr0sf71ZLjz/r+WSbe4KDWmrWFsq245KNZfWR/7uh2d5zqdVm9bePnFnj35po5nJXs4ZXIZY575j9mi2X/MbL+swts7bptAc67F4AgicAAAAACzYyHo7dGczcZS5rQ45iq0oCWrYypMPWluufzq3RqQ+0a0/DiDqHpjU8EYktSJwvopGoTr63ncvsEq0VAX3s7BqNjk7bezCVovrqJSzwXlBl9acvnFengaEpuw+A4AkAAADAogyNTOvnu/ZZA64sDp/iZbbPlLn0qTigd2wu17curdfJ97Truhd69VjNsEKt46rrmVDbwJSGrfcWngrbl+rlQkk9I1P6/Hm1/s2yybey+sKbNlfo0Up/7hC36vZWLSnlWBREWecWc2nlk1XcbXA2gicAAAAAi9YzNK3fxmc+OQ3IsrVMCGUCGnPZzollOsiEUSdX6KNn1uhLF9brP65q0m+s97Xi9lat+mObVt+d3bX2njb97tYWHbOuPPtDwGwpaz8dcFJAOx/rsntzal36VI8OWR3ieBRCWeePHQ9yid1cBE8AAAAAUmJ0PKxVd7RqSa7PtLFnQ8XCqNh6MmUzl62ZBYxzobjELvmy9tuvbmyxe3JqPVc9rKM3EATmfVnnjB9f3Rhb+w5/ieAJAAAAQMqYW4dvubdNB5pBNgNtKleqqEzfvbxB42OpX+epu29Cbzq5cibQdGqbyv0qDuhzZ1XH7iaJv0bwBAAAACClzOLWF+/u1lHrQjMzh5wGahSVTWX10w+fUa1Q+7jdi1MnEo7oradUETzla1l95y2bK/Rk7bB9xDEXwRMAAAAAX9z0Yr/evbVy5pI1pwEbRWVLlQT0ti2VerZ+xO69qfXps2oInvKxrGN69LqQbtzTZx9pOCF4AgAAAOCbZ2uH9eXz67idPJXdVRrUMWtDerh80O65qfWfVzRw6Wm+lXU8D10d1OVPddtHGW4IngAAAAD4qr13MnZnuGWs+0Rla1n9cmlxmW5+ud/utall+j99P4/KOpaHWH+aS4oVjdpHGW4IngAAAAD4bnIqogse79Lr1pdrv2KHgRxFZbp+v1cXPdtr99jUKr69leApX8o6jq9eE9LlT3ZLEUKnRBA8AQAAAEibZ+tG9Llz7PVuWPOGyqb6fZl2PtFj99TUWntvO8FTPlRxUMdsKNeNL7KmUzIIngAAAACk1fDotIpua9HrN1bEbmPPgJzKivIxeNpwf4dzm1Tu1IqAPnBale4LDthHFYkieAIAAACQdpFoVA+FBvWNi+p0QHEgdktyx8EeRaWrCJ4opzLBeFGZ/vmSer3cOGofUSSD4AkAAABAxnQPTeusR7r0lpMrYjMKHAd+FJWO+n2ZznuK4ImaVSUBHb4qqHV3taljYMo+mkgWwRMAAACAjIqEo6puH9fvbmqO3SkqNsOAy++odNfyMl39gj93tVt7D2s85VSZY1Uc0Ie3V+meQL8iLCK+KARPAAAAALKCGdw9Xzesb1xYp/1XhWYuv2OwTqWjrH72qpUB3RPwZ/2ekju4q11OVOnMZb9HrAvFgvDO/kn7CGIxCJ4AAAAAZJXwdES37+nTly6s16vXhmIzUbgDHuVrWf3rzRvL9UTNsN0LU+uEm5oJnrK5zLGxzjNHrgnpny+u12MVg/aRQyoQPAEAAADISpMT07r+xT59/6pGHWMCqBNNADVnwEhRqajigN61rUov7vNn8eifX9NI8JSNZY5JUZkOs/7bLB5+/fO9mpqO2EcNqULwBAAAACCrjU+E9WDFoE64uVmvW1duDRS5BI9Kca0I6AsX1Kndp0urvnFeLbP2sqnM+cM65q9aFdRPr9mn217uV9/ItH20kGoETwAAAABywthkRBVt4zr3kU59/PSqmdlPZgAZL6cBJkUlUsvL9JM/7JPC/iwibWZTETxlqOLnh/j5wjoOf3Nqpbbe0649TaMaHgvbRwl+IXgCAAAAkFui0uhEWI+WD+oX1zTqLVsqdOBqezFyFiSnFlJFZVpzd7vdwVJreGRKx26tJHjyu+LhktnP5jywYuZPc6OCI9eX672nVOnEm1r0ROWghsamFeVGdWlD8AQAAAAgp/UNTuqqZ3v046ub9KEzavSaDeVauqJs5pI8gihqvioJ6sh15bppT5/do1KrunlUr9tUMROKOLW/mLL695IVlKmDTgpYxzGk12+u1Ad3VOvT59bqp9c26axHu/RKw0jspgXIDIInAAAAAPkhKnX0TerOvQOx2Svfu7xB7zutSq9aaQ3QzcLkBFGUU1l94r1WP6nrGLM7Umrd8XK/XmXWJktxv1ti1VfOr9XZD3dqxwMdBV2nW3XR49268aU+PVA5pJaucYWnCJqyBcETAAAAgLw0Mjqtvc1jujswGJv18LM/7NNnd9bouA2h2Jo+8UtxYpfmxNd/mTO4pwqgrD7wnUvr7V6Teqc/3KkDVlntpLJ/Wa91oPWa5zzWabcCZC+CJwAAAAD5LyqNjEfUNjCl6s4JPV4zrOuf7dH6u9v0o2ub9LXza/XBLRU6fFXoLwb3OV+zwwrqr8vaRybAOfdR/wKcX+5qmgk4ndpfaFnbfejakK5/sd9uBcheBE8AAAAAClYkGtXkdFTjUxGNTETUNxpWa9+kqtvG9ErdsF6oHtJjgQE9Hsyd2h0a0KN7+/Wti+pnZnU5BRfUTJUGdczGCrV0j9s9IrWiVr/6xwvqUn8crO02a5kFG4btloDsRfAEAAAAAHnowid6tLQ0wMwnr7L2zb9d3mDvsdSrah3T+7dXp37GU0lAb9xcqcHhKbslIHsRPAEAAABAHmronNBHTq9m1pNHLSkJ6sHQoL3HUu/mPX2xO62l/I52JQH97elVditAdiN4AgAAAIA8VXR7q/Yzs56cwotCr9KgPnd2jcYm/Lv72fp72rVfUZlz+4spa9t/cW2j3QqQ3QieAAAAACBPVbaM6k2bK2bu3OcUYBRyFQV0w4u99p5KPXNXxX+9vNG34Gn7Q9zRDrmB4AkAAAAA8tjvb25O/aVeuV4rAvrSebXqHPRvjaSXmkb1ji2VvoR+S0qDeq7Kv0sEgVQieAIAAACAPNbWO6FjzaynUucQo+DK2g8HW3/e9GKfvYf8cc1zvf7MdrLq0FVBX0MzIJUIngAAAAAgz53/WJf2K/YnBMm5KirTv17ZqOHRsL13Um90PKz/3tXkz8LupUH941k1mpj2b20qIJUIngAAAAAgzw2OhvWti+q5w11xQMdtrtCTNcP2nvFHVceEXre+3J9ZZtZ7KL2tVZFI1G4NyG4ETwAAAABQAJ6oHtKbNpQX7npPpUHtb/156n0d9h7xz4WPd/kX8lmv+8e9/XZLQPYjeAIAAACAAnHGw11aZha7LsT1nooD+ubF9Zqc8vcStfHJiP7+jGp/9rH1mm9YF1J157jdGpD9CJ4AAAAAoECMjYf1k2uaYiGMY7CRr2W93/efWqXGNAQ2j4QG/Av2VgT0z5fUq3dk2m4NyH4ETwAAAABQQBo6x/WP59QWTvhkvc83bizXQ+WD9h7wU1Rfv6Tev+DpxDJtf8D/SwWBVCJ4AgAAAIACs7dxVB84pTL/L7krCeroNSFd/XS3FPV/Me7dlYM6Ym3It8vsDl8V1ANpCdCA1CF4AgAAAIAC9FT1sI7bVJG/i42XBnXoqpDOfLBD0XTcAc5q4gdXNvo3k2xFQJ/dWaum7gm7QSA3EDwBAAAAQIF6tHJQb9lckX+X3ZUEdcjKoLbd256WmU7G3XsH9Nr15q6BPu3L5WU64bZWuzUgdxA8AQAAAEABe6RyUB/YVunf7f/TXcUBHb02pLMeTN9aSMOj0/r+5Y3ar6jMeZsWWyVBHbUupFv39NktArmD4AkAAAAACtyehhF96dxa/4KTdFVRQG/fUqHrnuux31l6XPNcrw5cabXv15pZKwL66Jk16hiYslsEcgfBEwAAAABAjV0T+sV1+7TEXCqWi4uOrwjo02fX6Inqodh6S+nS1D2pj2yv8vdyReuY/O7WFrtFILcQPAEAAAAAYsYmwrrw8S69LrZWkUMAko1VGtT+1p//d90+tfald+HtcDiq39/Y7O9litb7O9o6Hs+YQA3IQQRPAAAAAIC/YC69+9r5dVpmgg8zkycbZ0CVBLSkNKB3b63Udc/3aTqcxmlOtpte6NVSp21LZVnv84vn1qZ1FheQSgRPAAAAAIC/MjER1nmPdupvTqvWMjP7KVsWHy+2akWZ3rCpQr+7qUXtfZP2FqdXqGVMbzu5wvdQzlz6eM0z6V2zCkglgicAAAAAgKumznFtvKddH9perWUmfMpUAGXWnlpepjdtrNDPr9unZ2qHFI1kZhpQ18CU/umCupltctrWVFVpUO/YUqHB0Wm7ZSD3EDwBAAAAADxFIlFVto3pzEc69dlzarWkuMzfxbRnl5ltVRTQO06pUMkdrXqydliTkxF7y9JvZDys39zUrCVmu/y+BHFFQDseaLdbBnITwRMAAAAAIDHRqNoHpnR/+aD+77omvXmjvQi5CWBml1OIMl/NfQ3rdQ9eGdR3L6rTtc/0qqZzIraYdyaFp6M65f4OLTMzndIw2+lYa//Wdo7brQO5ieAJAAAAAJA0s5h39+CU/lg2oN/f0qIPb6/SURsqdOiaci1bObM2UeyyvNllZknN/Zn1OPP4g1aH9Op15XrH1kr96KpGXft0jxq7JzQxFcmOhbWtbbj0iW4dEguFrO2eGxSluorKtOrO1ljYBeQygicAAAAAQEp09EzonrIBbXuoQ0U3NeufL6nXp86r08fPqdXHzq7V8WdW66PWn+a/P7GzVl+8sE7/u2ufTr63XVc/36fallFNmqAp20SiuuzJbh1sAiEzG2tuSJTqKgnobZsq9GLDqL0BQO4ieAIAAAAA+CoyFdH0RFgjw1OaGg8rPBmOXbaXC6YmIzr30S4dsjKYntDJVFGZTry1JRZ4AbmO4AkAAAAAAAeDo2Gt/mObDjlp5pJAx5Ao1VUc0Du2VOr52mF7K4DcRvAEAAAAAMAc5u51ZtbRMrN4erpCJ1OlAf3ulhZ7K4DcR/AEAAAAAMAs45MRnXhLy0zglI6FxONltXfclko1cic75BGCJwAAAAAAbLGZTrc0az8z0yldazrZtaQ4oDMf7LC3BMgPBE8AAAAAAFi6Bib1mxv3aWk6L62LV0lQnz6zRqNjYXtrgPxA8AQAAAAAKHjN3RP60RUNWlZsLq9zCIZ8roNWBvVg+aC9NUD+IHgCAAAAABS0YPOoPntOTexSt0yETvsVBbT8lhZNTUXsLQLyB8ETAAAAAKAgRaPSvXsH9LYtFem9c93sKg7o46dXq7aDBcWRnwieAAAAAKAARSJRjY4X7npCPcPT2nJvuw5eFczMLCdTJQG9ymp/1/O99lYB+YfgCQAAAAAKUKhlVP/zhyY9UzusaCRq/zT/mcDtubphfeuS+plFxDMVOpkqDujXNzQrGuYSO+QvgicAAAAAKDAmfPnXyxu134llOvbkCp1yf4cGR6bt3+avYes9nvpAh96ypVL7FZU5h0HpqpKAPnVWjdp6J+ytA/ITwRMAAAAAFJjrnu3R/ivtNY2KAzrY+vOz59Tqzpf7ZxY+yjtR3V82oH/YWasDT7Let1lEfHYIlO4qDeo1a0N6umbI3j4gfxE8AQAAAEABaeke17u3Vf3lYtrmcrPigA5ZE9J3L23QSw0jiuTB1V/RaFSv7BvTD69s1GHWe4sFTpm8tM6Uad/a91c82W1vJZDfCJ4AAAAAoGBE9Zubmt1n/MRCkaCOWBPSCTfs0wsNIxqfyL0FyMcmInq5aVQn3NisI03gZL2njAdOpuyAb8UtzZqYYl0nFAaCJwAAAAAoEPcEBvS69eV/OdvJrYoDOmp1UL+8bp9u3zug7qEp+1WyV9/wtO4qG9Cvr2/Wa9eGtN+KDF9SN7es7fnOJfXqGsj+fQmkCsETAAAAABSA9v4pfeWCuuQW1TYzdIoCOnRVUF+ynnvKAx16uWEku5aBikS0p35Y2x7s1D9dWK/DrW3db3kWXFI3t4oD+tgZ1apsG7M3HCgMBE8AAAAAkO+iUZ31cKf7JXbzVSyAKtOBpQG9dWulvnpRnc55pEvVrWOKRtKfQkXCUe1tGtH2Bzr0lQvr9NYtFTrAzOIyoVq2BU6mrP3+TmsbX6gfsd8BUDgIngAAAAAgz5W3jOkNG8oXH8qY55vwakVAB6wK6lXryvWpM6r1u1ta9EBZv/b1TGhkMqKJ6WhsYe/Fmg5HY2shDY6FVdM+ppue79X/3tCsj2yv0uFW2/uvtLbHXE5nQqdsDJxMWdv2uvUhPVI+aL8roLAQPAEAAABAHgtPR/WDyxpmFth2CkYWUybsmVUHrQzqE9sr9a9XN2nz3e268flePVQ1pBeaRlXZPq76rgnt651Uc9+fy/x/Q/eEqjvHtbdlTE/UDcfWorr8iS6dcEuLvnVJvd65uUJL5rQVK6dtyqYqDuh168p1655++2gAhYfgCQAAAADy2LXP9GhZ6QIvsVtImUDInhVl1ofab3mZDigu0xvXBvX+Uyr0sdOr9Ykza/5UH7X+/4PbKvW2jeU6zGyn9fjYJXPm+eZ1ElkIPRvL2vbXrivXDS/22kcCKEwETwAAAACQp+o7x/W+bVXZEd6YQMpshwmTZpf5malcmcWUSFnv65h15bry6R5FMrAGFpBNCJ4AAAAAIB9Fo/p/N+ybCXecwhHKnyoJ6oi15brymR7rGNjHAihgBE8AAAAAkIfueqVfx6wNZcdsp0Ipa18fYe3zq5/l8jogjuAJAAAAAPJMW9+kvnR+3cw6SU4BCZX6svb1WzdV6PaX++yjAMAgeAIAAACAfBKN6vSHOgmd0lnWvv7Qtio9VjFoHwQAcQRPAAAAAJBHXmka0Rs2lMfWGnIMSajUVnFAn91Zq7KmUfsIAJiN4AkAAAAA8sT0dET/38X1zHZKR5UGtaQkqJ9e1ah9fZP2EQAwF8ETAAAAAOSJy5/s1pJSh5CESm2VBHTYqqC23teusYmwvfcBOCF4AgAAAIA80NA5rndtqeQudn6WCfVWBPQ326pidw1U1N75AFwRPAEAAABAjpuciugn1zYROvlZxUEdWBrQv1/dqKrWMXvPA5gPwRMAAAAA5Lj2ngl95fw67be8bGZWjlNwQi28VgT0jpMrdNET3eofmbb3OoBEEDwBAAAAQI4LR6Jq6J7Qtvs7dMx6c0c7Zj6lpEqD2r80oP+8pkllLcxyAhaC4AkAAAAA8kQ0GlVt57h+c2OzjlwXmgmgShwCFcq7YvstoHdvq9KNL/Rpaipi72EAySJ4AgAAAIA89HLDiP7tyka9dkO59isqYxZUImX20YqA3rqlUqvvaFXP4JS9NwEsFMETAAAAAOSraFSPlg/GLhV788aKmTWgmAH112X2ibVv3rypQr+6oVllTSP2DgSwWARPAAAAAJDnpsNRPV41pBNvbdEbYzOgAixCbsrsA2tfHLOuXL+5qVlPVA9rytpXAFKH4AkAAAAACsT4VER7m0e19d52vfvkiplLywoxgDLv2Xrvx24oV/HtrXpp36hGJ8P2XgKQSgRPAAAAAFBgIpGoOgcmdc3TPfrkWTU6YNVMELNfcZ4GUXbQZN7fspVBve/UKp35QLv29Uxo2toXAPxD8AQAAAAABSwcjuqxikH9/NomvWtblQ4xIZRZjNyEUE4hTi6VeQ/WeznQ+u+3bq3Udy5t0M0v9mlsnNlNQLoQPAEAAAAAYlq6x3Xe7i798KpGvefUKi1bEZhZkDyXQigzs8na5qVFZXrn1kr9f5c1aPvDnapsGbPfJYB0IngCAAAAAPyFycmIXmka0UVP9uh/rm/We7ZVaomZBWUWJc+2u+KZy+hiM5sCOrgkoA9ur9IvrW2+8MluvdAwonFmNwEZRfAEAAAAAHA1MRlRVee47gsNau0f2/T5ndU6ZKUJoOwywU+8nIKhVNTsNuJlr9n0jk3l+s5lDTrjwU49UjWk2q4JTUxE7K0HkGkETwAAAACAhEyHoxoaD6uxe0J3vdynFbe36Ivn1Og1G8p1yNqQDlgV0hITFNmh0F9UPKhyqrmPtR9vXsssBn7Q6pAOW1sea+fzZ9Xo1zc269LdXXqlcUTdw9MamQwryiLhQFYieAIAAAAALMrI2LRCTSO6+pkebbq3Xb+8tkmf2VmrD55Zo/dtr9a7t1XpHadU6s0nV+g1m2bqtZsr9JYtlXr71srY7997WpXef3q1PnRmrT57Tp1+cU2jVt/ZotMf7dTdr/SroW2MRcGBHETwBAAAAADwRXQ6osGhKbV1jauhdVQv1A3r7ooh3WXV/ZVDCjSNqK5lVO3d4+rrn9TY6DQzl4A8Q/AEAAAAAAAAXxA8AQAAAAAAwBcETwAAAAAAAPAFwRMAAAAAAAB8QfAEAAAAAAAAXxA8AQAAAAAAwBcETwAAAAAAAPAFwRMAAAAAAAB8QfAEAAAAAAAAXxA8AQAAAAAAwBcETwAAAAAAAPAFwRMAAAAAAAB8QfAEAAAAAAAAXxA8AQAAAAAAwBcETwAAAAAAAPAFwRMAAAAAAAB8QfAEAAAAAAAAXxA8AQAAAAAAwBcETwAAAAAAAPAFwRMAAAAAAAB8QfAEAAAAAAAAXxA8AQAAAAAAwBcETwAAAAAAAPAFwRMAAAAAAAB8QfAEAAAAAAAAXxA8AQAAAAAAwBcETwAAAAAAAPAFwRMAAAAAAAB8QfAEAAAAAAAAXxA8AQAAAAAAwBcETwAAAAAAAPAFwRMAAAAAAAB8QfAEAAAAAAAAXxA8AQAAAAAAwBcETwAAAAAAAPAFwRMAAAAAAAB8QfAEAAAAAAAAXxA8AQAAAAAAwBcETwAAAAAAAPAFwRMAAAAAAAB8QfAEAAAAAAAAXxA8AQAAAAAAwBcETwAAAAAAAPAFwRMAAAAAAAB8QfAEAAAAAAAAXxA8AQAAAAAAwBcETwAAAAAAAPAFwRMAAAAAAAB8IP3/2912aNXu+74AAAAASUVORK5CYII=;direction=south;" vertex="1" parent="1">
          <mxGeometry x="209.99500000000003" y="109.995" width="51.83" height="150.54" as="geometry" />
        </mxCell>
        <mxCell id="OpeispYm6YmDS1nkDUbH-9" value="" style="rounded=0;whiteSpace=wrap;html=1;" vertex="1" parent="1">
          <mxGeometry x="251.82999999999998" y="40" width="486" height="310" as="geometry" />
        </mxCell>
      </root>
    </mxGraphModel>
  </diagram>
</mxfile>
